<svg xmlns="http://www.w3.org/2000/svg" viewBox="0 0 200 200" role="img" aria-label="Mango">
  <rect width="200" height="200" fill="#ede8dc"/>
  <defs>
    <radialGradient id="m1" cx="38%" cy="32%" r="70%">
      <stop offset="0%" stop-color="#ffe28a"/>
      <stop offset="45%" stop-color="#f5b42a"/>
      <stop offset="100%" stop-color="#d47812"/>
    </radialGradient>
    <linearGradient id="leaf" x1="0" y1="0" x2="1" y2="1">
      <stop offset="0%" stop-color="#8fbf4a"/>
      <stop offset="100%" stop-color="#3f7a22"/>
    </linearGradient>
  </defs>
  <ellipse cx="104" cy="168" rx="42" ry="8" fill="#c9c2b0" opacity=".55"/>
  <path d="M118 46c18-22 38-22 44-18-8 18-24 28-44 32-2-6-2-10 0-14z" fill="url(#leaf)"/>
  <path d="M132 42c6-2 16-8 22-18" fill="none" stroke="#5a8a2e" stroke-width="2.2" stroke-linecap="round"/>
  <path d="M98 36c38 2 62 36 58 78-4 44-36 66-68 62C52 172 34 136 38 98 42 58 66 34 98 36z" fill="url(#m1)"/>
  <path d="M78 70c18-16 42-14 52-4" fill="none" stroke="#fff6c8" stroke-width="6" stroke-linecap="round" opacity=".35"/>
  <ellipse cx="72" cy="88" rx="10" ry="16" fill="#fff6c8" opacity=".18"/>
</svg>
